<mxfile host="app.diagrams.net" agent="Mozilla/5.0 (Windows NT 10.0; Win64; x64) AppleWebKit/537.36 (KHTML, like Gecko) Chrome/109.0.0.0 Safari/537.36" version="24.9.1">
  <diagram name="PÃ¡gina-1" id="u9htYeDC97WIkpKF_hEc">
    <mxGraphModel dx="2848" dy="1913" grid="1" gridSize="10" guides="1" tooltips="1" connect="1" arrows="1" fold="1" page="1" pageScale="1" pageWidth="827" pageHeight="1169" math="0" shadow="0">
      <root>
        <mxCell id="0" />
        <mxCell id="1" parent="0" />
        <mxCell id="j47nlu3wF3iZ1WQulI3B-1" value="Horario" style="swimlane;fontStyle=1;align=center;verticalAlign=top;childLayout=stackLayout;horizontal=1;startSize=26;horizontalStack=0;resizeParent=1;resizeParentMax=0;resizeLast=0;collapsible=1;marginBottom=0;whiteSpace=wrap;html=1;fillColor=#94A8B8;" vertex="1" parent="1">
          <mxGeometry x="-890" y="-130" width="250" height="240" as="geometry" />
        </mxCell>
        <mxCell id="j47nlu3wF3iZ1WQulI3B-2" value="&lt;div&gt;- Horario : LocalTime;&lt;div&gt;- Nome: String;&lt;br&gt;&lt;div&gt;- Disponibilidade : Boolean;&lt;/div&gt;&lt;/div&gt;&lt;/div&gt;" style="text;strokeColor=none;fillColor=none;align=left;verticalAlign=middle;spacingLeft=4;spacingRight=4;overflow=hidden;rotatable=0;points=[[0,0.5],[1,0.5]];portConstraint=eastwest;whiteSpace=wrap;html=1;" vertex="1" parent="j47nlu3wF3iZ1WQulI3B-1">
          <mxGeometry y="26" width="250" height="54" as="geometry" />
        </mxCell>
        <mxCell id="j47nlu3wF3iZ1WQulI3B-3" value="" style="line;strokeWidth=1;fillColor=none;align=left;verticalAlign=middle;spacingTop=-1;spacingLeft=3;spacingRight=3;rotatable=0;labelPosition=right;points=[];portConstraint=eastwest;strokeColor=inherit;" vertex="1" parent="j47nlu3wF3iZ1WQulI3B-1">
          <mxGeometry y="80" width="250" height="8" as="geometry" />
        </mxCell>
        <mxCell id="j47nlu3wF3iZ1WQulI3B-4" value="+ Horario()&amp;nbsp;&lt;br&gt;+ Horario(horario: LocalTime, nome: String,&amp;nbsp;disponibilidade: boolean)&amp;nbsp;&lt;br&gt;+ getHorario(): LocalTime&amp;nbsp;&lt;br&gt;+ setHorario(horario: LocalTime): void&amp;nbsp;&lt;br&gt;+ getNome(): String&amp;nbsp;&lt;br&gt;+ setNome(nome: String): void&amp;nbsp;&lt;br&gt;+ isDisponibilidade(): boolean&amp;nbsp;&lt;br&gt;+ setDisponibilidade(disponibilidade: boolean): void" style="text;strokeColor=none;fillColor=none;align=left;verticalAlign=middle;spacingLeft=4;spacingRight=4;overflow=hidden;rotatable=0;points=[[0,0.5],[1,0.5]];portConstraint=eastwest;whiteSpace=wrap;html=1;" vertex="1" parent="j47nlu3wF3iZ1WQulI3B-1">
          <mxGeometry y="88" width="250" height="152" as="geometry" />
        </mxCell>
      </root>
    </mxGraphModel>
  </diagram>
</mxfile>
